<svg width="1143" height="507" viewBox="0 0 1143 507" fill="none" xmlns="http://www.w3.org/2000/svg">
<path d="M20 0.5H126.5V126.5H0.5V20C0.5 9.23045 9.23045 0.5 20 0.5Z" stroke="black" stroke-opacity="0.29"/>
<path d="M0.5 126.5H126.5V252.5H0.5V126.5Z" stroke="black" stroke-opacity="0.29"/>
<path d="M0.5 253.5H126.5V379.5H0.5V253.5Z" stroke="black" stroke-opacity="0.29"/>
<path d="M0.5 380.5H126.5V506.5H20C9.23045 506.5 0.5 497.77 0.5 487V380.5Z" stroke="black" stroke-opacity="0.29"/>
<path d="M127.5 0.5H253.5V126.5H127.5V0.5Z" stroke="black" stroke-opacity="0.29"/>
<path d="M127.5 126.5H253.5V252.5H127.5V126.5Z" stroke="black" stroke-opacity="0.29"/>
<path d="M127.5 253.5H253.5V379.5H127.5V253.5Z" stroke="black" stroke-opacity="0.29"/>
<path d="M127.5 380.5H253.5V506.5H127.5V380.5Z" stroke="black" stroke-opacity="0.29"/>
<path d="M254.5 0.5H380.5V126.5H254.5V0.5Z" stroke="black" stroke-opacity="0.29"/>
<path d="M254.5 126.5H380.5V252.5H254.5V126.5Z" stroke="black" stroke-opacity="0.29"/>
<path d="M254.5 253.5H380.5V379.5H254.5V253.5Z" stroke="black" stroke-opacity="0.29"/>
<path d="M254.5 380.5H380.5V506.5H254.5V380.5Z" stroke="black" stroke-opacity="0.29"/>
<path d="M381.5 0.5H507.5V126.5H381.5V0.5Z" stroke="black" stroke-opacity="0.29"/>
<path d="M381.5 126.5H507.5V252.5H381.5V126.5Z" stroke="black" stroke-opacity="0.29"/>
<path d="M381.5 253.5H507.5V379.5H381.5V253.5Z" stroke="black" stroke-opacity="0.29"/>
<path d="M381.5 380.5H507.5V506.5H381.5V380.5Z" stroke="black" stroke-opacity="0.29"/>
<path d="M508.5 0.5H634.5V126.5H508.5V0.5Z" stroke="black" stroke-opacity="0.29"/>
<path d="M508.5 126.5H634.5V252.5H508.5V126.5Z" stroke="black" stroke-opacity="0.29"/>
<path d="M508.5 253.5H634.5V379.5H508.5V253.5Z" stroke="black" stroke-opacity="0.29"/>
<path d="M508.5 380.5H634.5V506.5H508.5V380.5Z" stroke="black" stroke-opacity="0.29"/>
<path d="M635.5 0.5H761.5V126.5H635.5V0.5Z" stroke="black" stroke-opacity="0.29"/>
<path d="M635.5 126.5H761.5V252.5H635.5V126.5Z" stroke="black" stroke-opacity="0.29"/>
<path d="M635.5 253.5H761.5V379.5H635.5V253.5Z" stroke="black" stroke-opacity="0.29"/>
<path d="M635.5 380.5H761.5V506.5H635.5V380.5Z" stroke="black" stroke-opacity="0.29"/>
<path d="M762.5 0.5H888.5V126.5H762.5V0.5Z" stroke="black" stroke-opacity="0.29"/>
<path d="M762.5 126.5H888.5V252.5H762.5V126.5Z" stroke="black" stroke-opacity="0.29"/>
<path d="M762.5 253.5H888.5V379.5H762.5V253.5Z" stroke="black" stroke-opacity="0.29"/>
<path d="M762.5 380.5H888.5V506.5H762.5V380.5Z" stroke="black" stroke-opacity="0.29"/>
<path d="M889.5 0.5H1015.5V126.5H889.5V0.5Z" stroke="black" stroke-opacity="0.29"/>
<path d="M889.5 126.5H1015.5V252.5H889.5V126.5Z" stroke="black" stroke-opacity="0.29"/>
<path d="M889.5 253.5H1015.5V379.5H889.5V253.5Z" stroke="black" stroke-opacity="0.29"/>
<path d="M889.5 380.5H1015.5V506.5H889.5V380.5Z" stroke="black" stroke-opacity="0.29"/>
<path d="M1016.5 0.5H1123C1133.77 0.5 1142.5 9.23045 1142.5 20V126.5H1016.5V0.5Z" stroke="black" stroke-opacity="0.29"/>
<path d="M1016.5 126.5H1142.5V252.5H1016.5V126.5Z" stroke="black" stroke-opacity="0.29"/>
<path d="M1016.5 253.5H1142.5V379.5H1016.5V253.5Z" stroke="black" stroke-opacity="0.29"/>
<path d="M1016.5 380.5H1142.5V487C1142.5 497.77 1133.77 506.5 1123 506.5H1016.5V380.5Z" stroke="black" stroke-opacity="0.29"/>
</svg>
